<svg
        xmlns="http://www.w3.org/2000/svg"
        xmlns:xlink="http://www.w3.org/1999/xlink"
        width="192px" height="149px">
    <path fill-rule="evenodd"  fill="rgb(0, 84, 148)"
          d="M141.457,146.784 L141.457,63.133 L191.971,63.133 L191.971,146.784 L141.457,146.784 ZM167.358,143.173 C168.964,143.173 170.273,141.884 170.273,140.300 C170.273,138.716 168.964,137.434 167.358,137.434 C165.745,137.434 164.444,138.723 164.444,140.300 C164.444,141.884 165.753,143.173 167.358,143.173 ZM167.836,66.597 C167.161,66.597 166.613,67.129 166.613,67.796 C166.613,68.457 167.161,69.002 167.836,69.002 C168.510,69.002 169.055,68.457 169.055,67.796 C169.055,67.132 168.510,66.597 167.836,66.597 ZM175.101,70.608 L160.571,70.608 L160.571,71.757 L175.101,71.757 L175.101,70.608 ZM183.866,75.865 L149.562,75.873 L149.562,133.388 C156.066,133.442 170.747,133.396 183.866,133.322 L183.866,75.865 ZM157.778,10.925 L37.248,10.925 L37.248,32.693 L26.628,32.693 L26.628,0.473 L168.400,0.473 L168.400,59.077 L157.778,59.077 L157.778,10.925 ZM75.261,148.521 L0.049,148.521 L0.049,37.442 L75.261,37.442 L75.261,148.521 ZM39.242,142.952 C41.245,142.952 42.874,141.341 42.869,139.376 C42.869,137.411 41.245,135.811 39.242,135.811 C37.240,135.811 35.619,137.411 35.619,139.376 C35.619,141.341 37.240,142.952 39.242,142.952 ZM10.926,48.146 L10.926,130.103 L64.389,130.103 L64.393,48.146 L10.926,48.146 ZM135.966,92.498 L80.109,92.498 L80.109,82.045 L135.966,82.045 L135.966,92.498 ZM99.524,96.778 L135.966,96.778 L135.966,111.615 L80.109,111.615 L80.109,105.888 L117.550,105.888 L117.550,103.115 L80.109,103.115 L80.109,96.778 L95.481,96.778 L99.524,96.778 Z"/>
</svg>